# Blender 4.4.3
# www.blender.org
mtllib Ramie1.mtl
o Cylinder
v 0.000000 0.190658 -0.392175
v 0.000000 0.413137 -0.392175
v 0.195090 0.190658 -0.351512
v 0.195090 0.413137 -0.351512
v 0.382683 0.190658 -0.231085
v 0.382683 0.413137 -0.231085
v 0.555570 0.190658 -0.035524
v 0.555570 0.413137 -0.035524
v 0.707107 0.190658 0.227658
v 0.707107 0.413137 0.227658
v 0.831470 0.190658 0.548345
v 0.831470 0.413137 0.548345
v 0.923880 0.190658 0.914215
v 0.923880 0.413137 0.914215
v 0.980785 0.190658 1.311207
v 0.980785 0.413137 1.311207
v 1.000000 0.190658 1.724065
v 1.000000 0.413137 1.724065
v 0.980785 0.190658 2.136923
v 0.980785 0.413137 2.136923
v 0.923880 0.190658 2.533915
v 0.923880 0.413137 2.533915
v 0.831470 0.190658 2.899785
v 0.831470 0.413137 2.899785
v 0.707107 0.190658 3.220473
v 0.707107 0.413137 3.220473
v 0.555570 0.190658 3.483654
v 0.555570 0.413137 3.483654
v 0.382683 0.190658 3.679216
v 0.382683 0.413137 3.679216
v 0.195090 0.190658 3.799642
v 0.195090 0.413137 3.799642
v 0.000000 0.190658 3.840305
v 0.000000 0.413137 3.840305
v -0.195090 0.190658 3.799642
v -0.195090 0.413137 3.799642
v -0.382683 0.190658 3.679216
v -0.382683 0.413137 3.679216
v -0.555570 0.190658 3.483654
v -0.555570 0.413137 3.483654
v -0.707107 0.190658 3.220473
v -0.707107 0.413137 3.220473
v -0.831470 0.190658 2.899785
v -0.831470 0.413137 2.899785
v -0.923880 0.190658 2.533915
v -0.923880 0.413137 2.533915
v -0.980785 0.190658 2.136923
v -0.980785 0.413137 2.136923
v -1.000000 0.190658 1.724065
v -1.000000 0.413137 1.724065
v -0.980785 0.190658 1.311207
v -0.980785 0.413137 1.311207
v -0.923880 0.190658 0.914215
v -0.923880 0.413137 0.914215
v -0.831470 0.190658 0.548345
v -0.831470 0.413137 0.548345
v -0.707107 0.190658 0.227658
v -0.707107 0.413137 0.227658
v -0.555570 0.190658 -0.035524
v -0.555570 0.413137 -0.035524
v -0.382683 0.190658 -0.231085
v -0.382683 0.413137 -0.231085
v -0.195090 0.190658 -0.351512
v -0.195090 0.413137 -0.351512
v 0.195090 0.413137 -0.351512
v 0.000000 0.413137 -0.392175
v 0.382683 0.413137 -0.231085
v 0.555570 0.413137 -0.035524
v 0.707107 0.413137 0.227658
v 0.831470 0.413137 0.548345
v 0.923880 0.413137 0.914215
v 0.980785 0.413137 1.311207
v 1.000000 0.413137 1.724065
v 0.980785 0.413137 2.136923
v 0.923880 0.413137 2.533915
v 0.831470 0.413137 2.899785
v 0.707107 0.413137 3.220473
v 0.555570 0.413137 3.483654
v 0.382683 0.413137 3.679216
v 0.195090 0.413137 3.799642
v 0.000000 0.413137 3.840305
v -0.195090 0.413137 3.799642
v -0.382683 0.413137 3.679216
v -0.555570 0.413137 3.483654
v -0.707107 0.413137 3.220473
v -0.831470 0.413137 2.899785
v -0.923880 0.413137 2.533915
v -0.980785 0.413137 2.136923
v -1.000000 0.413137 1.724065
v -0.980785 0.413137 1.311207
v -0.923880 0.413137 0.914215
v -0.831470 0.413137 0.548345
v -0.707107 0.413137 0.227658
v -0.555570 0.413137 -0.035524
v -0.382683 0.413137 -0.231085
v -0.195090 0.413137 -0.351512
v 0.168868 0.491790 -0.072536
v 0.000000 0.491790 -0.107734
v 0.331247 0.491790 0.031704
v 0.480897 0.491790 0.200980
v 0.612065 0.491790 0.428788
v 0.719713 0.491790 0.706372
v 0.799702 0.491790 1.023066
v 0.848959 0.491790 1.366699
v 0.865591 0.491790 1.724065
v 0.848959 0.491790 2.081431
v 0.799702 0.491790 2.425064
v 0.719713 0.491790 2.741758
v 0.612065 0.491790 3.019343
v 0.480897 0.491790 3.247150
v 0.331247 0.491790 3.416427
v 0.168868 0.491790 3.520667
v 0.000000 0.491790 3.555864
v -0.168868 0.491790 3.520667
v -0.331247 0.491790 3.416427
v -0.480897 0.491790 3.247150
v -0.612065 0.491790 3.019343
v -0.719713 0.491790 2.741758
v -0.799702 0.491790 2.425064
v -0.848959 0.491790 2.081431
v -0.865591 0.491790 1.724065
v -0.848959 0.491790 1.366699
v -0.799702 0.491790 1.023066
v -0.719713 0.491790 0.706372
v -0.612065 0.491790 0.428788
v -0.480897 0.491790 0.200980
v -0.331247 0.491790 0.031704
v -0.168868 0.491790 -0.072536
v -0.010045 0.067618 -0.174417
v 0.164555 0.067618 -0.138025
v 0.332446 0.067618 -0.030246
v 0.487176 0.067618 0.144776
v 0.622797 0.067618 0.380317
v 0.734098 0.067618 0.667324
v 0.816803 0.067618 0.994768
v 0.867732 0.067618 1.350065
v 0.884929 0.067618 1.719563
v 0.867732 0.067618 2.089060
v 0.816803 0.067618 2.444357
v 0.734098 0.067618 2.771801
v 0.622797 0.067618 3.058808
v 0.487176 0.067618 3.294349
v 0.332446 0.067618 3.469371
v 0.164555 0.067618 3.577150
v -0.010045 0.067618 3.613542
v -0.184646 0.067618 3.577150
v -0.352537 0.067618 3.469371
v -0.507266 0.067618 3.294349
v -0.642887 0.067618 3.058808
v -0.754189 0.067618 2.771801
v -0.754189 0.266731 2.771801
v -0.836893 0.067618 2.444357
v -0.887823 0.067618 2.089060
v -0.905019 0.067618 1.719563
v -0.887823 0.067618 1.350065
v -0.887823 0.266731 1.350065
v -0.836893 0.067618 0.994768
v -0.836893 0.266731 0.994768
v -0.754189 0.067618 0.667324
v -0.642887 0.067618 0.380317
v -0.642887 0.266731 0.380317
v -0.507266 0.067618 0.144776
v -0.352537 0.067618 -0.030246
v -0.184646 0.067618 -0.138025
vn 0.2040 -0.0000 -0.9790
vn 0.5402 -0.0000 -0.8415
vn 0.7492 -0.0000 -0.6623
vn 0.8666 -0.0000 -0.4990
vn 0.9323 -0.0000 -0.3616
vn 0.9696 -0.0000 -0.2449
vn 0.9899 -0.0000 -0.1419
vn 0.9989 -0.0000 -0.0465
vn 0.9989 -0.0000 0.0465
vn 0.9899 -0.0000 0.1419
vn 0.9696 -0.0000 0.2449
vn 0.9323 -0.0000 0.3616
vn 0.8666 -0.0000 0.4990
vn 0.7492 -0.0000 0.6623
vn 0.5402 -0.0000 0.8415
vn 0.2040 -0.0000 0.9790
vn -0.2040 -0.0000 0.9790
vn -0.5402 -0.0000 0.8415
vn -0.7492 -0.0000 0.6623
vn -0.8666 -0.0000 0.4990
vn -0.9323 -0.0000 0.3616
vn -0.9696 -0.0000 0.2449
vn -0.9899 -0.0000 0.1419
vn -0.9989 -0.0000 0.0465
vn -0.9989 -0.0000 -0.0465
vn -0.9899 -0.0000 -0.1419
vn -0.9696 -0.0000 -0.2449
vn -0.9323 -0.0000 -0.3616
vn -0.8666 -0.0000 -0.4990
vn -0.7492 -0.0000 -0.6623
vn -0.0000 1.0000 -0.0000
vn -0.5402 -0.0000 -0.8415
vn -0.2040 -0.0000 -0.9790
vn -0.7403 -0.6458 -0.1870
vn 0.4573 0.8818 0.1155
vn -0.5049 0.8628 -0.0235
vn 0.4086 0.8989 0.1584
vn -0.4892 0.8694 -0.0701
vn 0.3426 0.9185 0.1973
vn -0.4573 0.8818 -0.1155
vn 0.2600 0.9379 0.2298
vn 0.0555 0.9623 -0.2661
vn -0.4086 0.8989 -0.1584
vn 0.1628 0.9535 0.2535
vn 0.1628 0.9535 -0.2535
vn -0.3426 0.9185 -0.1973
vn 0.0555 0.9623 0.2661
vn 0.2600 0.9379 -0.2298
vn -0.2600 0.9379 -0.2298
vn -0.0555 0.9623 0.2661
vn 0.3426 0.9185 -0.1973
vn -0.1628 0.9535 -0.2535
vn -0.1628 0.9535 0.2535
vn 0.4086 0.8989 -0.1584
vn -0.0555 0.9623 -0.2661
vn -0.2600 0.9379 0.2298
vn 0.4573 0.8818 -0.1155
vn -0.3426 0.9185 0.1973
vn 0.4892 0.8694 -0.0701
vn -0.4086 0.8989 0.1584
vn 0.5049 0.8628 -0.0235
vn -0.4573 0.8818 0.1155
vn 0.5049 0.8628 0.0235
vn -0.4892 0.8694 0.0701
vn 0.4892 0.8694 0.0701
vn -0.5049 0.8628 0.0235
vn -0.0000 -1.0000 -0.0000
vn 0.6311 -0.7361 -0.2447
vn 0.4282 -0.8205 0.3786
vn -0.7718 -0.6262 0.1106
vn 0.1013 -0.8681 -0.4859
vn -0.1027 -0.8640 -0.4929
vn 0.7124 -0.6943 0.1021
vn -0.4539 -0.7956 0.4013
vn -0.6810 -0.6831 -0.2641
vn 0.6842 -0.7085 -0.1728
vn 0.2793 -0.8560 0.4350
vn -0.7904 -0.6115 0.0368
vn -0.9218 -0.0000 0.3878
vn 0.2871 -0.8471 -0.4472
vn 0.6781 -0.7148 0.1713
vn -0.5806 -0.7423 0.3343
vn -0.5913 -0.7311 -0.3405
vn 0.7161 -0.6904 -0.1026
vn 0.0982 -0.8765 0.4712
vn -0.7917 -0.6098 -0.0368
vn 0.4381 -0.8112 -0.3873
vn 0.6228 -0.7441 0.2415
vn -0.6720 -0.6932 0.2606
vn -0.4647 -0.7844 -0.4108
vn -0.3857 -0.0000 0.9226
vn 0.7306 -0.6820 -0.0340
vn -0.0996 -0.8727 0.4779
vn -0.7757 -0.6212 -0.1112
vn 0.8560 -0.0000 0.5169
vn 0.5513 -0.7716 -0.3174
vn 0.5415 -0.7807 0.3118
vn -0.7338 -0.6536 0.1853
vn -0.2988 -0.8331 -0.4655
vn -0.6795 -0.0000 0.7337
vn 0.7293 -0.6833 0.0339
vn -0.2905 -0.8431 0.4526
vt 1.000000 0.500000
vt 1.000000 1.000000
vt 0.968750 1.000000
vt 0.968750 0.500000
vt 0.937500 1.000000
vt 0.937500 0.500000
vt 0.906250 1.000000
vt 0.906250 0.500000
vt 0.875000 1.000000
vt 0.875000 0.500000
vt 0.843750 1.000000
vt 0.843750 0.500000
vt 0.812500 1.000000
vt 0.812500 0.500000
vt 0.781250 1.000000
vt 0.781250 0.500000
vt 0.750000 1.000000
vt 0.750000 0.500000
vt 0.718750 1.000000
vt 0.718750 0.500000
vt 0.687500 1.000000
vt 0.687500 0.500000
vt 0.656250 1.000000
vt 0.656250 0.500000
vt 0.625000 1.000000
vt 0.625000 0.500000
vt 0.593750 1.000000
vt 0.593750 0.500000
vt 0.562500 1.000000
vt 0.562500 0.500000
vt 0.531250 1.000000
vt 0.531250 0.500000
vt 0.500000 1.000000
vt 0.500000 0.500000
vt 0.468750 1.000000
vt 0.468750 0.500000
vt 0.437500 1.000000
vt 0.437500 0.500000
vt 0.406250 1.000000
vt 0.406250 0.500000
vt 0.375000 1.000000
vt 0.375000 0.500000
vt 0.343750 1.000000
vt 0.343750 0.500000
vt 0.312500 1.000000
vt 0.312500 0.500000
vt 0.281250 1.000000
vt 0.281250 0.500000
vt 0.250000 1.000000
vt 0.250000 0.500000
vt 0.218750 1.000000
vt 0.218750 0.500000
vt 0.187500 1.000000
vt 0.187500 0.500000
vt 0.156250 1.000000
vt 0.156250 0.500000
vt 0.125000 1.000000
vt 0.125000 0.500000
vt 0.093750 1.000000
vt 0.093750 0.500000
vt 0.062500 1.000000
vt 0.062500 0.500000
vt 0.031250 1.000000
vt 0.031250 0.500000
vt 0.000000 1.000000
vt 0.000000 0.500000
vt 0.296822 0.485388
vt 0.250000 0.490000
vt 0.203178 0.485388
vt 0.158156 0.471731
vt 0.116663 0.449553
vt 0.080294 0.419706
vt 0.050447 0.383337
vt 0.028269 0.341844
vt 0.014612 0.296822
vt 0.010000 0.250000
vt 0.014612 0.203178
vt 0.028269 0.158156
vt 0.050447 0.116663
vt 0.080294 0.080294
vt 0.116663 0.050447
vt 0.158156 0.028269
vt 0.203178 0.014612
vt 0.250000 0.010000
vt 0.296822 0.014612
vt 0.341844 0.028269
vt 0.383337 0.050447
vt 0.419706 0.080294
vt 0.449553 0.116663
vt 0.471731 0.158156
vt 0.485388 0.203178
vt 0.490000 0.250000
vt 0.485388 0.296822
vt 0.471731 0.341844
vt 0.449553 0.383337
vt 0.419706 0.419706
vt 0.383337 0.449553
vt 0.341844 0.471731
vt 0.750000 0.490000
vt 0.796822 0.485388
vt 0.841844 0.471731
vt 0.883337 0.449553
vt 0.919706 0.419706
vt 0.949553 0.383337
vt 0.971731 0.341844
vt 0.985388 0.296822
vt 0.990000 0.250000
vt 0.985388 0.203178
vt 0.971731 0.158156
vt 0.949553 0.116663
vt 0.919706 0.080294
vt 0.883337 0.050447
vt 0.841844 0.028269
vt 0.796822 0.014612
vt 0.750000 0.010000
vt 0.703178 0.014612
vt 0.658156 0.028269
vt 0.616663 0.050447
vt 0.580294 0.080294
vt 0.550447 0.116663
vt 0.528269 0.158156
vt 0.514612 0.203178
vt 0.510000 0.250000
vt 0.514612 0.296822
vt 0.528269 0.341844
vt 0.550447 0.383337
vt 0.580294 0.419706
vt 0.616663 0.449553
vt 0.658156 0.471731
vt 0.703178 0.485388
s 0
usemtl Material.001
f 1/1/1 2/2/1 4/3/1 3/4/1
f 3/4/2 4/3/2 6/5/2 5/6/2
f 5/6/3 6/5/3 8/7/3 7/8/3
f 7/8/4 8/7/4 10/9/4 9/10/4
f 9/10/5 10/9/5 12/11/5 11/12/5
f 11/12/6 12/11/6 14/13/6 13/14/6
f 13/14/7 14/13/7 16/15/7 15/16/7
f 15/16/8 16/15/8 18/17/8 17/18/8
f 17/18/9 18/17/9 20/19/9 19/20/9
f 19/20/10 20/19/10 22/21/10 21/22/10
f 21/22/11 22/21/11 24/23/11 23/24/11
f 23/24/12 24/23/12 26/25/12 25/26/12
f 25/26/13 26/25/13 28/27/13 27/28/13
f 27/28/14 28/27/14 30/29/14 29/30/14
f 29/30/15 30/29/15 32/31/15 31/32/15
f 31/32/16 32/31/16 34/33/16 33/34/16
f 33/34/17 34/33/17 36/35/17 35/36/17
f 35/36/18 36/35/18 38/37/18 37/38/18
f 37/38/19 38/37/19 40/39/19 39/40/19
f 39/40/20 40/39/20 42/41/20 41/42/20
f 41/42/21 42/41/21 44/43/21 43/44/21
f 43/44/22 44/43/22 46/45/22 45/46/22
f 45/46/23 46/45/23 48/47/23 47/48/23
f 47/48/24 48/47/24 50/49/24 49/50/24
f 49/50/25 50/49/25 52/51/25 51/52/25
f 51/52/26 52/51/26 54/53/26 53/54/26
f 53/54/27 54/53/27 56/55/27 55/56/27
f 55/56/28 56/55/28 58/57/28 57/58/28
f 57/58/29 58/57/29 60/59/29 59/60/29
f 59/60/30 60/59/30 62/61/30 61/62/30
f 20/19/31 18/17/31 73/17/31 74/19/31
f 61/62/32 62/61/32 64/63/32 63/64/32
f 63/64/33 64/63/33 2/65/33 1/66/33
f 53/54/34 55/56/34 159/56/34 157/54/34
f 76/23/35 75/21/35 107/21/35 108/23/35
f 38/37/31 36/35/31 82/35/31 83/37/31
f 56/55/31 54/53/31 91/53/31 92/55/31
f 12/11/31 10/9/31 69/9/31 70/11/31
f 30/29/31 28/27/31 78/27/31 79/29/31
f 48/47/31 46/45/31 87/45/31 88/47/31
f 4/3/31 2/2/31 66/2/31 65/3/31
f 2/65/31 64/63/31 96/63/31 66/65/31
f 22/21/31 20/19/31 74/19/31 75/21/31
f 40/39/31 38/37/31 83/37/31 84/39/31
f 58/57/31 56/55/31 92/55/31 93/57/31
f 14/13/31 12/11/31 70/11/31 71/13/31
f 32/31/31 30/29/31 79/29/31 80/31/31
f 50/49/31 48/47/31 88/47/31 89/49/31
f 6/5/31 4/3/31 65/3/31 67/5/31
f 24/23/31 22/21/31 75/21/31 76/23/31
f 42/41/31 40/39/31 84/39/31 85/41/31
f 60/59/31 58/57/31 93/57/31 94/59/31
f 16/15/31 14/13/31 71/13/31 72/15/31
f 34/33/31 32/31/31 80/31/31 81/33/31
f 52/51/31 50/49/31 89/49/31 90/51/31
f 8/7/31 6/5/31 67/5/31 68/7/31
f 26/25/31 24/23/31 76/23/31 77/25/31
f 44/43/31 42/41/31 85/41/31 86/43/31
f 62/61/31 60/59/31 94/59/31 95/61/31
f 18/17/31 16/15/31 72/15/31 73/17/31
f 36/35/31 34/33/31 81/33/31 82/35/31
f 54/53/31 52/51/31 90/51/31 91/53/31
f 10/9/31 8/7/31 68/7/31 69/9/31
f 28/27/31 26/25/31 77/25/31 78/27/31
f 46/45/31 44/43/31 86/43/31 87/45/31
f 64/63/31 62/61/31 95/61/31 96/63/31
f 97/67/31 98/68/31 128/69/31 127/70/31 126/71/31 125/72/31 124/73/31 123/74/31 122/75/31 121/76/31 120/77/31 119/78/31 118/79/31 117/80/31 116/81/31 115/82/31 114/83/31 113/84/31 112/85/31 111/86/31 110/87/31 109/88/31 108/89/31 107/90/31 106/91/31 105/92/31 104/93/31 103/94/31 102/95/31 101/96/31 100/97/31 99/98/31
f 90/51/36 89/49/36 121/49/36 122/51/36
f 77/25/37 76/23/37 108/23/37 109/25/37
f 91/53/38 90/51/38 122/51/38 123/53/38
f 78/27/39 77/25/39 109/25/39 110/27/39
f 92/55/40 91/53/40 123/53/40 124/55/40
f 79/29/41 78/27/41 110/27/41 111/29/41
f 65/3/42 66/2/42 98/2/42 97/3/42
f 93/57/43 92/55/43 124/55/43 125/57/43
f 80/31/44 79/29/44 111/29/44 112/31/44
f 67/5/45 65/3/45 97/3/45 99/5/45
f 94/59/46 93/57/46 125/57/46 126/59/46
f 81/33/47 80/31/47 112/31/47 113/33/47
f 68/7/48 67/5/48 99/5/48 100/7/48
f 95/61/49 94/59/49 126/59/49 127/61/49
f 82/35/50 81/33/50 113/33/50 114/35/50
f 69/9/51 68/7/51 100/7/51 101/9/51
f 96/63/52 95/61/52 127/61/52 128/63/52
f 83/37/53 82/35/53 114/35/53 115/37/53
f 70/11/54 69/9/54 101/9/54 102/11/54
f 66/65/55 96/63/55 128/63/55 98/65/55
f 84/39/56 83/37/56 115/37/56 116/39/56
f 71/13/57 70/11/57 102/11/57 103/13/57
f 85/41/58 84/39/58 116/39/58 117/41/58
f 72/15/59 71/13/59 103/13/59 104/15/59
f 86/43/60 85/41/60 117/41/60 118/43/60
f 73/17/61 72/15/61 104/15/61 105/17/61
f 87/45/62 86/43/62 118/43/62 119/45/62
f 74/19/63 73/17/63 105/17/63 106/19/63
f 88/47/64 87/45/64 119/45/64 120/47/64
f 75/21/65 74/19/65 106/19/65 107/21/65
f 89/49/66 88/47/66 120/47/66 121/49/66
f 129/99/67 130/100/67 131/101/67 132/102/67 133/103/67 134/104/67 135/105/67 136/106/67 137/107/67 138/108/67 139/109/67 140/110/67 141/111/67 142/112/67 143/113/67 144/114/67 145/115/67 146/116/67 147/117/67 148/118/67 149/119/67 150/120/67 152/121/67 153/122/67 154/123/67 155/124/67 157/125/67 159/126/67 160/127/67 162/128/67 163/129/67 164/130/67
f 9/10/68 11/12/68 134/12/68 133/10/68
f 27/28/69 29/30/69 143/30/69 142/28/69
f 45/46/70 47/48/70 153/48/70 152/46/70
f 1/1/71 3/4/71 130/4/71 129/1/71
f 63/64/72 1/66/72 129/66/72 164/64/72
f 19/20/73 21/22/73 139/22/73 138/20/73
f 37/38/74 39/40/74 148/40/74 147/38/74
f 55/56/75 57/58/75 160/58/75 159/56/75
f 11/12/76 13/14/76 135/14/76 134/12/76
f 29/30/77 31/32/77 144/32/77 143/30/77
f 47/48/78 49/50/78 154/50/78 153/48/78
f 58/57/79 57/58/79 160/58/79 161/57/79
f 3/4/80 5/6/80 131/6/80 130/4/80
f 21/22/81 23/24/81 140/24/81 139/22/81
f 39/40/82 41/42/82 149/42/82 148/40/82
f 57/58/83 59/60/83 162/60/83 160/58/83
f 13/14/84 15/16/84 136/16/84 135/14/84
f 31/32/85 33/34/85 145/34/85 144/32/85
f 49/50/86 51/52/86 155/52/86 154/50/86
f 5/6/87 7/8/87 132/8/87 131/6/87
f 23/24/88 25/26/88 141/26/88 140/24/88
f 41/42/89 43/44/89 150/44/89 149/42/89
f 59/60/90 61/62/90 163/62/90 162/60/90
f 52/51/91 51/52/91 155/52/91 156/51/91
f 15/16/92 17/18/92 137/18/92 136/16/92
f 33/34/93 35/36/93 146/36/93 145/34/93
f 51/52/94 53/54/94 157/54/94 155/52/94
f 44/43/95 43/44/95 150/44/95 151/43/95
f 7/8/96 9/10/96 133/10/96 132/8/96
f 25/26/97 27/28/97 142/28/97 141/26/97
f 43/44/98 45/46/98 152/46/98 150/44/98
f 61/62/99 63/64/99 164/64/99 163/62/99
f 54/53/100 53/54/100 157/54/100 158/53/100
f 17/18/101 19/20/101 138/20/101 137/18/101
f 35/36/102 37/38/102 147/38/102 146/36/102
