# Blender 4.4.3
# www.blender.org
mtllib Ramie2.mtl
o Cylinder
v 0.000000 0.113284 -4.251991
v 0.000000 0.491120 -4.251991
v 0.195090 0.113284 -4.203849
v 0.195090 0.491120 -4.203849
v 0.382683 0.113284 -4.061272
v 0.382683 0.491120 -4.061272
v 0.555570 0.113284 -3.829738
v 0.555570 0.491120 -3.829738
v 0.707107 0.113284 -3.518147
v 0.707107 0.491120 -3.518147
v 0.831470 0.113284 -3.138472
v 0.831470 0.491120 -3.138472
v 0.923880 0.113284 -2.705304
v 0.923880 0.491120 -2.705304
v 0.980785 0.113284 -2.235289
v 0.980785 0.491120 -2.235289
v 1.000000 0.113284 -1.746489
v 1.000000 0.491120 -1.746489
v 0.980785 0.113284 -1.257690
v 0.980785 0.491120 -1.257690
v 0.923880 0.113284 -0.787675
v 0.923880 0.491120 -0.787675
v 0.831470 0.113284 -0.354507
v 0.831470 0.491120 -0.354507
v 0.707107 0.113284 0.025168
v 0.707107 0.491120 0.025168
v 0.555570 0.113284 0.336760
v 0.555570 0.491120 0.336760
v 0.382683 0.113284 0.568293
v 0.382683 0.491120 0.568293
v 0.195090 0.113284 0.710870
v 0.195090 0.491120 0.710870
v 0.000000 0.113284 0.759013
v 0.000000 0.491120 0.759013
v -0.195090 0.113284 0.710870
v -0.195090 0.491120 0.710870
v -0.382683 0.113284 0.568293
v -0.382683 0.491120 0.568293
v -0.555570 0.113284 0.336760
v -0.555570 0.491120 0.336760
v -0.707107 0.113284 0.025168
v -0.707107 0.491120 0.025168
v -0.831470 0.113284 -0.354507
v -0.831470 0.491120 -0.354507
v -0.923880 0.113284 -0.787675
v -0.923880 0.491120 -0.787675
v -0.980785 0.113284 -1.257690
v -0.980785 0.491120 -1.257690
v -1.000000 0.113284 -1.746489
v -1.000000 0.491120 -1.746489
v -0.980785 0.113284 -2.235289
v -0.980785 0.491120 -2.235289
v -0.923880 0.113284 -2.705304
v -0.923880 0.491120 -2.705304
v -0.831470 0.113284 -3.138472
v -0.831470 0.491120 -3.138472
v -0.707107 0.113284 -3.518147
v -0.707107 0.491120 -3.518147
v -0.555570 0.113284 -3.829738
v -0.555570 0.491120 -3.829738
v -0.382683 0.113284 -4.061272
v -0.382683 0.491120 -4.061272
v -0.195090 0.113284 -4.203849
v -0.195090 0.491120 -4.203849
v 0.149759 0.871189 -3.632851
v 0.000000 0.871189 -3.669807
v 0.293762 0.871189 -3.523403
v 0.426477 0.871189 -3.345669
v 0.542802 0.871189 -3.106480
v 0.638267 0.871189 -2.815027
v 0.709205 0.871189 -2.482511
v 0.752888 0.871189 -2.121710
v 0.767638 0.871189 -1.746489
v 0.752888 0.871189 -1.371269
v 0.709205 0.871189 -1.010468
v 0.638267 0.871189 -0.677951
v 0.542802 0.871189 -0.386498
v 0.426477 0.871189 -0.147309
v 0.293762 0.871189 0.030424
v 0.149759 0.871189 0.139872
v 0.000000 0.871189 0.176828
v -0.149759 0.871189 0.139872
v -0.293762 0.871189 0.030424
v -0.426477 0.871189 -0.147309
v -0.542802 0.871189 -0.386498
v -0.638267 0.871189 -0.677951
v -0.709205 0.871189 -1.010468
v -0.752888 0.871189 -1.371269
v -0.767638 0.871189 -1.746489
v -0.752888 0.871189 -2.121710
v -0.709205 0.871189 -2.482511
v -0.638267 0.871189 -2.815027
v -0.542802 0.871189 -3.106480
v -0.426477 0.871189 -3.345669
v -0.293762 0.871189 -3.523403
v -0.149759 0.871189 -3.632851
v 0.000000 0.004289 -3.965307
v 0.172768 0.004289 -3.922672
v 0.338896 0.004289 -3.796409
v 0.492001 0.004289 -3.591368
v 0.626198 0.004289 -3.315430
v 0.736331 0.004289 -2.979198
v 0.818167 0.004289 -2.595594
v 0.868562 0.004289 -2.179359
v 0.885578 0.004289 -1.746489
v 0.868562 0.004289 -1.313620
v 0.818167 0.004289 -0.897385
v 0.736331 0.004289 -0.513780
v 0.626198 0.004289 -0.177549
v 0.492001 0.004289 0.098390
v 0.338896 0.004289 0.303430
v 0.172768 0.004289 0.429694
v 0.000000 0.004289 0.472328
v -0.172768 0.004289 0.429694
v -0.338896 0.004289 0.303430
v -0.492001 0.004289 0.098390
v -0.626198 0.004289 -0.177549
v -0.736331 0.004289 -0.513780
v -0.818167 0.004289 -0.897385
v -0.868562 0.004289 -1.313620
v -0.885578 0.004289 -1.746489
v -0.868562 0.004289 -2.179359
v -0.818167 0.004289 -2.595594
v -0.736331 0.004289 -2.979198
v -0.626198 0.004289 -3.315430
v -0.492001 0.004289 -3.591368
v -0.338896 0.004289 -3.796409
v -0.172768 0.004289 -3.922672
vn 0.2396 -0.0000 -0.9709
vn 0.6051 -0.0000 -0.7961
vn 0.8013 -0.0000 -0.5983
vn 0.8993 -0.0000 -0.4374
vn 0.9503 -0.0000 -0.3113
vn 0.9780 -0.0000 -0.2086
vn 0.9928 -0.0000 -0.1202
vn 0.9992 -0.0000 -0.0393
vn 0.9992 -0.0000 0.0393
vn 0.9928 -0.0000 0.1202
vn 0.9780 -0.0000 0.2086
vn 0.9503 -0.0000 0.3113
vn 0.8993 -0.0000 0.4374
vn 0.8013 -0.0000 0.5983
vn 0.6051 -0.0000 0.7961
vn 0.2396 -0.0000 0.9709
vn -0.2396 -0.0000 0.9709
vn -0.6051 -0.0000 0.7961
vn -0.8013 -0.0000 0.5983
vn -0.8993 -0.0000 0.4374
vn -0.9503 -0.0000 0.3113
vn -0.9780 -0.0000 0.2086
vn -0.9928 -0.0000 0.1202
vn -0.9992 -0.0000 0.0393
vn -0.9992 -0.0000 -0.0393
vn -0.9928 -0.0000 -0.1202
vn -0.9780 -0.0000 -0.2086
vn -0.9503 -0.0000 -0.3113
vn -0.8993 -0.0000 -0.4374
vn -0.8013 -0.0000 -0.5983
vn 0.8395 0.5338 0.1016
vn -0.6051 -0.0000 -0.7961
vn -0.2396 -0.0000 -0.9709
vn -0.5838 -0.7890 -0.1912
vn -0.0000 1.0000 -0.0000
vn -0.5570 0.7189 0.4159
vn -0.7610 0.5990 -0.2493
vn 0.8107 0.5593 -0.1730
vn 0.3747 0.7853 0.4929
vn -0.8527 0.5213 0.0335
vn 0.3747 0.7853 -0.4929
vn 0.8107 0.5593 0.1730
vn -0.6810 0.6531 0.3312
vn -0.6810 0.6531 -0.3312
vn 0.8395 0.5338 -0.1016
vn 0.1337 0.8298 0.5417
vn -0.8527 0.5213 -0.0335
vn 0.5570 0.7189 -0.4159
vn 0.7610 0.5990 0.2493
vn -0.7610 0.5990 0.2493
vn -0.5570 0.7189 -0.4159
vn 0.8527 0.5213 -0.0335
vn -0.1337 0.8298 0.5417
vn -0.8395 0.5338 -0.1016
vn 0.6810 0.6531 -0.3312
vn 0.6810 0.6531 0.3312
vn -0.8107 0.5593 0.1730
vn -0.3747 0.7853 -0.4929
vn 0.8527 0.5213 0.0335
vn -0.3747 0.7853 0.4929
vn -0.8107 0.5593 -0.1730
vn 0.7610 0.5990 -0.2493
vn 0.5570 0.7189 0.4159
vn -0.8395 0.5338 0.1016
vn 0.1337 0.8298 -0.5417
vn -0.1337 0.8298 -0.5417
vn -0.0000 -1.0000 -0.0000
vn 0.6390 -0.7570 -0.1363
vn 0.2525 -0.9088 0.3322
vn -0.6895 -0.7238 0.0271
vn 0.2525 -0.9088 -0.3322
vn 0.6390 -0.7570 0.1363
vn -0.5032 -0.8288 0.2447
vn -0.5032 -0.8288 -0.2447
vn 0.6732 -0.7350 -0.0815
vn 0.0874 -0.9312 0.3540
vn -0.6895 -0.7238 -0.0271
vn 0.3932 -0.8713 -0.2936
vn 0.5838 -0.7890 0.1912
vn -0.5838 -0.7890 0.1912
vn -0.3932 -0.8713 -0.2936
vn 0.6895 -0.7238 -0.0271
vn -0.0874 -0.9312 0.3540
vn -0.6732 -0.7350 -0.0815
vn 0.5032 -0.8288 -0.2447
vn 0.5032 -0.8288 0.2447
vn -0.6390 -0.7570 0.1363
vn -0.2525 -0.9088 -0.3322
vn 0.6895 -0.7238 0.0271
vn -0.2525 -0.9088 0.3322
vn -0.6390 -0.7570 -0.1363
vn 0.5838 -0.7890 -0.1912
vn 0.3932 -0.8713 0.2936
vn -0.6732 -0.7350 0.0815
vn 0.0874 -0.9312 -0.3540
vn -0.0874 -0.9312 -0.3540
vn 0.6732 -0.7350 0.0815
vn -0.3932 -0.8713 0.2936
vt 1.000000 0.500000
vt 1.000000 1.000000
vt 0.968750 1.000000
vt 0.968750 0.500000
vt 0.937500 1.000000
vt 0.937500 0.500000
vt 0.906250 1.000000
vt 0.906250 0.500000
vt 0.875000 1.000000
vt 0.875000 0.500000
vt 0.843750 1.000000
vt 0.843750 0.500000
vt 0.812500 1.000000
vt 0.812500 0.500000
vt 0.781250 1.000000
vt 0.781250 0.500000
vt 0.750000 1.000000
vt 0.750000 0.500000
vt 0.718750 1.000000
vt 0.718750 0.500000
vt 0.687500 1.000000
vt 0.687500 0.500000
vt 0.656250 1.000000
vt 0.656250 0.500000
vt 0.625000 1.000000
vt 0.625000 0.500000
vt 0.593750 1.000000
vt 0.593750 0.500000
vt 0.562500 1.000000
vt 0.562500 0.500000
vt 0.531250 1.000000
vt 0.531250 0.500000
vt 0.500000 1.000000
vt 0.500000 0.500000
vt 0.468750 1.000000
vt 0.468750 0.500000
vt 0.437500 1.000000
vt 0.437500 0.500000
vt 0.406250 1.000000
vt 0.406250 0.500000
vt 0.375000 1.000000
vt 0.375000 0.500000
vt 0.343750 1.000000
vt 0.343750 0.500000
vt 0.312500 1.000000
vt 0.312500 0.500000
vt 0.281250 1.000000
vt 0.281250 0.500000
vt 0.250000 1.000000
vt 0.250000 0.500000
vt 0.218750 1.000000
vt 0.218750 0.500000
vt 0.187500 1.000000
vt 0.187500 0.500000
vt 0.156250 1.000000
vt 0.156250 0.500000
vt 0.125000 1.000000
vt 0.125000 0.500000
vt 0.093750 1.000000
vt 0.093750 0.500000
vt 0.062500 1.000000
vt 0.062500 0.500000
vt 0.031250 1.000000
vt 0.031250 0.500000
vt 0.000000 1.000000
vt 0.000000 0.500000
vt 0.296822 0.485388
vt 0.250000 0.490000
vt 0.203178 0.485388
vt 0.158156 0.471731
vt 0.116663 0.449553
vt 0.080294 0.419706
vt 0.050447 0.383337
vt 0.028269 0.341844
vt 0.014612 0.296822
vt 0.010000 0.250000
vt 0.014612 0.203178
vt 0.028269 0.158156
vt 0.050447 0.116663
vt 0.080294 0.080294
vt 0.116663 0.050447
vt 0.158156 0.028269
vt 0.203178 0.014612
vt 0.250000 0.010000
vt 0.296822 0.014612
vt 0.341844 0.028269
vt 0.383337 0.050447
vt 0.419706 0.080294
vt 0.449553 0.116663
vt 0.471731 0.158156
vt 0.485388 0.203178
vt 0.490000 0.250000
vt 0.485388 0.296822
vt 0.471731 0.341844
vt 0.449553 0.383337
vt 0.419706 0.419706
vt 0.383337 0.449553
vt 0.341844 0.471731
vt 0.750000 0.490000
vt 0.796822 0.485388
vt 0.841844 0.471731
vt 0.883337 0.449553
vt 0.919706 0.419706
vt 0.949553 0.383337
vt 0.971731 0.341844
vt 0.985388 0.296822
vt 0.990000 0.250000
vt 0.985388 0.203178
vt 0.971731 0.158156
vt 0.949553 0.116663
vt 0.919706 0.080294
vt 0.883337 0.050447
vt 0.841844 0.028269
vt 0.796822 0.014612
vt 0.750000 0.010000
vt 0.703178 0.014612
vt 0.658156 0.028269
vt 0.616663 0.050447
vt 0.580294 0.080294
vt 0.550447 0.116663
vt 0.528269 0.158156
vt 0.514612 0.203178
vt 0.510000 0.250000
vt 0.514612 0.296822
vt 0.528269 0.341844
vt 0.550447 0.383337
vt 0.580294 0.419706
vt 0.616663 0.449553
vt 0.658156 0.471731
vt 0.703178 0.485388
s 0
usemtl Material.001
f 1/1/1 2/2/1 4/3/1 3/4/1
f 3/4/2 4/3/2 6/5/2 5/6/2
f 5/6/3 6/5/3 8/7/3 7/8/3
f 7/8/4 8/7/4 10/9/4 9/10/4
f 9/10/5 10/9/5 12/11/5 11/12/5
f 11/12/6 12/11/6 14/13/6 13/14/6
f 13/14/7 14/13/7 16/15/7 15/16/7
f 15/16/8 16/15/8 18/17/8 17/18/8
f 17/18/9 18/17/9 20/19/9 19/20/9
f 19/20/10 20/19/10 22/21/10 21/22/10
f 21/22/11 22/21/11 24/23/11 23/24/11
f 23/24/12 24/23/12 26/25/12 25/26/12
f 25/26/13 26/25/13 28/27/13 27/28/13
f 27/28/14 28/27/14 30/29/14 29/30/14
f 29/30/15 30/29/15 32/31/15 31/32/15
f 31/32/16 32/31/16 34/33/16 33/34/16
f 33/34/17 34/33/17 36/35/17 35/36/17
f 35/36/18 36/35/18 38/37/18 37/38/18
f 37/38/19 38/37/19 40/39/19 39/40/19
f 39/40/20 40/39/20 42/41/20 41/42/20
f 41/42/21 42/41/21 44/43/21 43/44/21
f 43/44/22 44/43/22 46/45/22 45/46/22
f 45/46/23 46/45/23 48/47/23 47/48/23
f 47/48/24 48/47/24 50/49/24 49/50/24
f 49/50/25 50/49/25 52/51/25 51/52/25
f 51/52/26 52/51/26 54/53/26 53/54/26
f 53/54/27 54/53/27 56/55/27 55/56/27
f 55/56/28 56/55/28 58/57/28 57/58/28
f 57/58/29 58/57/29 60/59/29 59/60/29
f 59/60/30 60/59/30 62/61/30 61/62/30
f 22/21/31 20/19/31 74/19/31 75/21/31
f 61/62/32 62/61/32 64/63/32 63/64/32
f 63/64/33 64/63/33 2/65/33 1/66/33
f 55/56/34 57/58/34 125/58/34 124/56/34
f 65/67/35 66/68/35 96/69/35 95/70/35 94/71/35 93/72/35 92/73/35 91/74/35 90/75/35 89/76/35 88/77/35 87/78/35 86/79/35 85/80/35 84/81/35 83/82/35 82/83/35 81/84/35 80/85/35 79/86/35 78/87/35 77/88/35 76/89/35 75/90/35 74/91/35 73/92/35 72/93/35 71/94/35 70/95/35 69/96/35 68/97/35 67/98/35
f 40/39/36 38/37/36 83/37/36 84/39/36
f 58/57/37 56/55/37 92/55/37 93/57/37
f 14/13/38 12/11/38 70/11/38 71/13/38
f 32/31/39 30/29/39 79/29/39 80/31/39
f 50/49/40 48/47/40 88/47/40 89/49/40
f 6/5/41 4/3/41 65/3/41 67/5/41
f 24/23/42 22/21/42 75/21/42 76/23/42
f 42/41/43 40/39/43 84/39/43 85/41/43
f 60/59/44 58/57/44 93/57/44 94/59/44
f 16/15/45 14/13/45 71/13/45 72/15/45
f 34/33/46 32/31/46 80/31/46 81/33/46
f 52/51/47 50/49/47 89/49/47 90/51/47
f 8/7/48 6/5/48 67/5/48 68/7/48
f 26/25/49 24/23/49 76/23/49 77/25/49
f 44/43/50 42/41/50 85/41/50 86/43/50
f 62/61/51 60/59/51 94/59/51 95/61/51
f 18/17/52 16/15/52 72/15/52 73/17/52
f 36/35/53 34/33/53 81/33/53 82/35/53
f 54/53/54 52/51/54 90/51/54 91/53/54
f 10/9/55 8/7/55 68/7/55 69/9/55
f 28/27/56 26/25/56 77/25/56 78/27/56
f 46/45/57 44/43/57 86/43/57 87/45/57
f 64/63/58 62/61/58 95/61/58 96/63/58
f 20/19/59 18/17/59 73/17/59 74/19/59
f 38/37/60 36/35/60 82/35/60 83/37/60
f 56/55/61 54/53/61 91/53/61 92/55/61
f 12/11/62 10/9/62 69/9/62 70/11/62
f 30/29/63 28/27/63 78/27/63 79/29/63
f 48/47/64 46/45/64 87/45/64 88/47/64
f 4/3/65 2/2/65 66/2/65 65/3/65
f 2/65/66 64/63/66 96/63/66 66/65/66
f 97/99/67 98/100/67 99/101/67 100/102/67 101/103/67 102/104/67 103/105/67 104/106/67 105/107/67 106/108/67 107/109/67 108/110/67 109/111/67 110/112/67 111/113/67 112/114/67 113/115/67 114/116/67 115/117/67 116/118/67 117/119/67 118/120/67 119/121/67 120/122/67 121/123/67 122/124/67 123/125/67 124/126/67 125/127/67 126/128/67 127/129/67 128/130/67
f 11/12/68 13/14/68 103/14/68 102/12/68
f 29/30/69 31/32/69 112/32/69 111/30/69
f 47/48/70 49/50/70 121/50/70 120/48/70
f 3/4/71 5/6/71 99/6/71 98/4/71
f 21/22/72 23/24/72 108/24/72 107/22/72
f 39/40/73 41/42/73 117/42/73 116/40/73
f 57/58/74 59/60/74 126/60/74 125/58/74
f 13/14/75 15/16/75 104/16/75 103/14/75
f 31/32/76 33/34/76 113/34/76 112/32/76
f 49/50/77 51/52/77 122/52/77 121/50/77
f 5/6/78 7/8/78 100/8/78 99/6/78
f 23/24/79 25/26/79 109/26/79 108/24/79
f 41/42/80 43/44/80 118/44/80 117/42/80
f 59/60/81 61/62/81 127/62/81 126/60/81
f 15/16/82 17/18/82 105/18/82 104/16/82
f 33/34/83 35/36/83 114/36/83 113/34/83
f 51/52/84 53/54/84 123/54/84 122/52/84
f 7/8/85 9/10/85 101/10/85 100/8/85
f 25/26/86 27/28/86 110/28/86 109/26/86
f 43/44/87 45/46/87 119/46/87 118/44/87
f 61/62/88 63/64/88 128/64/88 127/62/88
f 17/18/89 19/20/89 106/20/89 105/18/89
f 35/36/90 37/38/90 115/38/90 114/36/90
f 53/54/91 55/56/91 124/56/91 123/54/91
f 9/10/92 11/12/92 102/12/92 101/10/92
f 27/28/93 29/30/93 111/30/93 110/28/93
f 45/46/94 47/48/94 120/48/94 119/46/94
f 1/1/95 3/4/95 98/4/95 97/1/95
f 63/64/96 1/66/96 97/66/96 128/64/96
f 19/20/97 21/22/97 107/22/97 106/20/97
f 37/38/98 39/40/98 116/40/98 115/38/98
